<svg xmlns="http://www.w3.org/2000/svg" version="1.1" xmlns:xlink="http://www.w3.org/1999/xlink" width="1000" height="1000"><style>
    #light-icon {
      display: inline;
    }
    #dark-icon {
      display: none;
    }

    @media (prefers-color-scheme: dark) {
      #light-icon {
        display: none;
      }
      #dark-icon {
        display: inline;
      }
    }
  </style><g id="light-icon"><svg xmlns="http://www.w3.org/2000/svg" version="1.1" xmlns:xlink="http://www.w3.org/1999/xlink" width="1000" height="1000"><g clip-path="url(#SvgjsClipPath1286)"><rect width="1000" height="1000" fill="#6b3a1f"></rect><g transform="matrix(1.953125,0,0,1.953125,0,0)"><svg xmlns="http://www.w3.org/2000/svg" version="1.1" xmlns:xlink="http://www.w3.org/1999/xlink" xml:space="preserve" width="512px" height="512px" style="shape-rendering:geometricPrecision; text-rendering:geometricPrecision; image-rendering:optimizeQuality; fill-rule:evenodd; clip-rule:evenodd" viewBox="0 0 512 512" xmlns:xodm="http://www.corel.com/coreldraw/odm/2003"><defs>
  <style type="text/css">
   
    .fil0 {fill:#6B3A1F}
    .fil2 {fill:#F5EFE0;fill-rule:nonzero}
    .fil1 {fill:white;fill-rule:nonzero}
   
  </style>
 <clipPath id="SvgjsClipPath1286"><rect width="1000" height="1000" x="0" y="0" rx="0" ry="0"></rect></clipPath></defs><g id="Camada_x0020_1">
  <metadata id="CorelCorpID_0Corel-Layer"></metadata>
  <rect class="fil0" width="512" height="512"></rect>
  <path class="fil1" d="M73.8 142.75c6.45,0 11.75,0.88 15.89,2.63 4.15,1.75 7.79,3.87 10.92,6.36 1.02,0.83 1.94,1.24 2.77,1.24 1.75,0 2.9,-2.76 3.45,-8.29l3.19 0c-0.19,3.68 -0.33,8.18 -0.42,13.47 -0.09,5.3 -0.14,12.33 -0.14,21.09l-3.18 0c-0.64,-6.64 -1.77,-12.19 -3.38,-16.66 -1.62,-4.47 -4.73,-8.27 -9.34,-11.41 -1.93,-1.29 -4.19,-2.3 -6.77,-3.04 -2.58,-0.74 -5.07,-1.1 -7.47,-1.1 -5.34,0 -9.76,1.45 -13.27,4.35 -3.5,2.9 -6.29,6.68 -8.36,11.34 -2.07,4.65 -3.55,9.72 -4.42,15.2 -0.88,5.49 -1.32,10.81 -1.32,15.97 0,16.59 2.03,28.71 6.08,36.36 4.06,7.65 9.45,11.47 16.18,11.47 1.47,0 2.77,-0.13 3.87,-0.41 1.11,-0.28 2.07,-0.69 2.9,-1.25 1.02,-0.73 1.75,-1.65 2.22,-2.76 0.46,-1.11 0.69,-2.49 0.69,-4.15l0 -13.82c0,-4.52 -0.35,-7.88 -1.04,-10.09 -0.69,-2.22 -2.05,-3.74 -4.08,-4.57 -2.03,-0.83 -4.97,-1.29 -8.85,-1.38l0 -2.76c2.12,0.09 4.7,0.16 7.75,0.2 3.04,0.05 6.22,0.1 9.53,0.14 3.32,0.05 6.36,0.07 9.13,0.07 4.42,0 8.5,-0.05 12.23,-0.14 3.74,-0.09 6.75,-0.18 9.06,-0.27l0 2.76c-1.57,0.09 -2.77,0.42 -3.6,0.97 -0.83,0.55 -1.38,1.66 -1.66,3.32 -0.27,1.66 -0.41,4.19 -0.41,7.6l0 27.37 -2.77 0c-0.09,-1.56 -0.46,-3.27 -1.1,-5.11 -0.65,-1.85 -1.71,-2.77 -3.18,-2.77 -0.74,0 -1.77,0.19 -3.11,0.56 -1.34,0.36 -3.43,1.24 -6.29,2.62 -3.59,1.75 -7.4,3.3 -11.41,4.63 -4.01,1.34 -7.99,2.01 -11.95,2.01 -11.52,0 -21.16,-1.98 -28.9,-5.95 -7.74,-3.96 -13.52,-9.67 -17.35,-17.14 -3.82,-7.46 -5.73,-16.45 -5.73,-26.96 0,-10.32 2.28,-19.35 6.84,-27.09 4.56,-7.74 10.87,-13.78 18.94,-18.11 8.06,-4.33 17.35,-6.5 27.86,-6.5z"></path>
  <path id="_1" class="fil1" d="M200.84 144.69c-0.37,4.6 -0.62,9.05 -0.76,13.34 -0.14,4.28 -0.21,7.58 -0.21,9.88 0,1.84 0.05,3.66 0.14,5.46 0.09,1.8 0.19,3.3 0.28,4.49l-3.18 0c-1.11,-7.64 -2.95,-13.66 -5.53,-18.04 -2.58,-4.37 -5.6,-7.46 -9.06,-9.26 -3.45,-1.8 -7.07,-2.69 -10.85,-2.69l-1.8 0c-2.39,0 -4.19,0.2 -5.39,0.62 -1.19,0.41 -2,1.24 -2.42,2.49 -0.41,1.24 -0.62,3.11 -0.62,5.59l0 74.1c0,2.49 0.21,4.36 0.62,5.6 0.42,1.25 1.23,2.08 2.42,2.49 1.2,0.42 3,0.62 5.39,0.62l4.57 0c3.04,0 6.24,-0.99 9.6,-2.97 3.37,-1.98 6.48,-5.37 9.34,-10.16 2.85,-4.79 5.02,-11.34 6.49,-19.63l3.18 0c-0.27,3.32 -0.41,7.56 -0.41,12.72 0,2.3 0.04,5.6 0.14,9.88 0.09,4.29 0.37,8.73 0.83,13.34 -4.7,-0.18 -10,-0.3 -15.9,-0.34 -5.9,-0.05 -11.15,-0.07 -15.76,-0.07 -2.49,0 -5.67,0 -9.54,0 -3.87,0 -8.02,0.02 -12.44,0.07 -4.43,0.04 -8.92,0.09 -13.48,0.13 -4.56,0.05 -8.87,0.12 -12.93,0.21l0 -2.76c2.86,-0.19 4.98,-0.56 6.36,-1.11 1.38,-0.55 2.31,-1.66 2.77,-3.32 0.46,-1.66 0.69,-4.14 0.69,-7.46l0 -68.57c0,-3.41 -0.23,-5.92 -0.69,-7.53 -0.46,-1.62 -1.41,-2.72 -2.84,-3.32 -1.43,-0.6 -3.52,-0.95 -6.29,-1.04l0 -2.76c4.15,0.09 8.48,0.16 13,0.2 4.51,0.05 8.98,0.1 13.41,0.14 4.42,0.05 8.57,0.07 12.44,0.07 3.87,0 7.05,0 9.54,0 4.24,0 9.05,-0.02 14.45,-0.07 5.39,-0.04 10.2,-0.16 14.44,-0.34zm-20.04 47.28c0,0 0,0.46 0,1.38 0,0.92 0,1.38 0,1.38l-23.51 0c0,0 0,-0.46 0,-1.38 0,-0.92 0,-1.38 0,-1.38l23.51 0zm4.01 -18.25c-0.37,5.25 -0.54,9.26 -0.49,12.02 0.05,2.77 0.07,5.3 0.07,7.61 0,2.3 0.05,4.84 0.14,7.6 0.09,2.77 0.32,6.77 0.69,12.03l-3.18 0c-0.55,-3.41 -1.68,-6.5 -3.39,-9.26 -1.7,-2.77 -3.89,-4.96 -6.56,-6.57 -2.68,-1.61 -5.76,-2.42 -9.27,-2.42l0 -2.76c2.58,0 4.93,-0.56 7.05,-1.66 2.12,-1.11 3.99,-2.58 5.6,-4.43 1.62,-1.84 2.95,-3.82 4.01,-5.94 1.06,-2.12 1.78,-4.19 2.15,-6.22l3.18 0z"></path>
  <path id="_2" class="fil1" d="M266.78 142.75c10.33,0 19.43,1.98 27.31,5.95 7.88,3.96 13.98,9.65 18.31,17.07 4.34,7.42 6.5,16.43 6.5,27.02 0,10.33 -2.23,19.36 -6.7,27.1 -4.47,7.74 -10.65,13.78 -18.53,18.11 -7.88,4.33 -16.93,6.5 -27.16,6.5 -10.32,0 -19.4,-1.98 -27.24,-5.95 -7.83,-3.96 -13.91,-9.67 -18.24,-17.14 -4.34,-7.46 -6.5,-16.45 -6.5,-26.96 0,-10.32 2.25,-19.35 6.77,-27.09 4.52,-7.74 10.67,-13.78 18.46,-18.11 7.78,-4.33 16.79,-6.5 27.02,-6.5zm-0.69 2.49c-4.51,0 -8.48,2.07 -11.89,6.22 -3.41,4.15 -6.03,9.86 -7.88,17.14 -1.84,7.28 -2.76,15.72 -2.76,25.3 0,9.77 1.04,18.27 3.11,25.51 2.07,7.23 4.91,12.81 8.5,16.72 3.59,3.92 7.56,5.88 11.89,5.88 4.61,0 8.64,-2.07 12.1,-6.22 3.45,-4.15 6.1,-9.89 7.95,-17.21 1.84,-7.33 2.76,-15.74 2.76,-25.23 0,-9.86 -1.08,-18.39 -3.25,-25.58 -2.16,-7.19 -5.02,-12.74 -8.57,-16.66 -3.55,-3.91 -7.53,-5.87 -11.96,-5.87z"></path>
  <path id="_3" class="fil2" d="M113.06 269.44l0 2.76c-2.77,0.56 -4.87,1.52 -6.29,2.9 -1.43,1.39 -2.38,3.53 -2.84,6.43 -0.46,2.91 -0.69,6.98 -0.69,12.24l0 73.54c-1.38,-0.18 -2.88,-0.27 -4.49,-0.27 -1.61,0 -3.34,0.09 -5.19,0.27l-61.24 -66.91 0 39.82c0,6.17 0.25,10.9 0.76,14.17 0.51,3.27 1.75,5.62 3.74,7.05 1.98,1.43 5.13,2.46 9.46,3.11l0 2.76c-1.84,-0.18 -4.23,-0.3 -7.18,-0.34 -2.95,-0.05 -5.72,-0.07 -8.3,-0.07 -2.03,0 -4.1,0.02 -6.22,0.07 -2.12,0.04 -3.87,0.16 -5.25,0.34l0 -2.76c2.85,-0.65 4.97,-1.64 6.36,-2.97 1.38,-1.34 2.3,-3.48 2.76,-6.43 0.46,-2.95 0.69,-7.01 0.69,-12.17l0 -58.89c0,-3.41 -0.23,-5.92 -0.69,-7.53 -0.46,-1.62 -1.41,-2.72 -2.83,-3.32 -1.43,-0.6 -3.53,-0.95 -6.29,-1.04l0 -2.76c1.38,0.09 3.13,0.18 5.25,0.27 2.12,0.1 4.19,0.14 6.22,0.14 2.31,0 4.56,-0.04 6.77,-0.14 2.22,-0.09 4.2,-0.18 5.95,-0.27l56.54 59.72 0 -32.63c0,-6.17 -0.25,-10.9 -0.76,-14.17 -0.51,-3.27 -1.73,-5.64 -3.66,-7.12 -1.94,-1.47 -5.12,-2.48 -9.54,-3.04l0 -2.76c1.84,0.09 4.24,0.18 7.19,0.27 2.95,0.1 5.71,0.14 8.29,0.14 2.12,0 4.22,-0.04 6.29,-0.14 2.08,-0.09 3.8,-0.18 5.19,-0.27z"></path>
  <path id="_4" class="fil2" d="M167.94 269.44l0 2.76c-2.86,0.09 -4.98,0.44 -6.36,1.04 -1.38,0.6 -2.3,1.7 -2.76,3.32 -0.47,1.61 -0.7,4.12 -0.7,7.53l0 68.57c0,3.32 0.23,5.81 0.7,7.47 0.46,1.65 1.4,2.76 2.83,3.31 1.43,0.56 3.52,0.92 6.29,1.11l0 2.76c-2.67,-0.18 -6.11,-0.3 -10.3,-0.34 -4.19,-0.05 -8.46,-0.07 -12.79,-0.07 -5.07,0 -9.74,0.02 -14.03,0.07 -4.28,0.04 -7.81,0.16 -10.58,0.34l0 -2.76c2.86,-0.19 4.98,-0.55 6.36,-1.11 1.39,-0.55 2.31,-1.66 2.77,-3.31 0.46,-1.66 0.69,-4.15 0.69,-7.47l0 -68.57c0,-3.41 -0.23,-5.92 -0.69,-7.53 -0.46,-1.62 -1.41,-2.72 -2.83,-3.32 -1.43,-0.6 -3.53,-0.95 -6.3,-1.04l0 -2.76c2.77,0.09 6.3,0.18 10.58,0.27 4.29,0.1 8.96,0.14 14.03,0.14 4.33,0 8.6,-0.04 12.79,-0.14 4.19,-0.09 7.63,-0.18 10.3,-0.27z"></path>
  <path id="_5" class="fil2" d="M227.94 267.5c6.08,0 11.08,0.9 15,2.7 3.91,1.79 7.39,3.89 10.43,6.29 1.85,1.38 3.25,1.54 4.22,0.48 0.97,-1.06 1.64,-3.57 2.01,-7.53l3.17 0c-0.18,3.68 -0.32,8.18 -0.41,13.48 -0.09,5.29 -0.14,12.32 -0.14,21.08l-3.18 0c-0.37,-4.43 -0.97,-8.37 -1.8,-11.82 -0.82,-3.46 -2.07,-6.52 -3.73,-9.2 -1.66,-2.67 -4.05,-5.02 -7.19,-7.05 -1.93,-1.29 -3.98,-2.3 -6.15,-3.04 -2.16,-0.73 -4.4,-1.1 -6.7,-1.1 -5.26,0 -9.59,1.45 -13,4.35 -3.41,2.9 -6.06,6.68 -7.95,11.34 -1.89,4.65 -3.2,9.72 -3.94,15.2 -0.73,5.49 -1.1,10.81 -1.1,15.97 0,5.16 0.37,10.49 1.1,15.97 0.74,5.48 2.05,10.55 3.94,15.21 1.89,4.65 4.54,8.43 7.95,11.33 3.41,2.9 7.74,4.36 13,4.36 2.3,0 4.54,-0.4 6.7,-1.18 2.17,-0.78 4.22,-1.77 6.15,-2.97 4.61,-2.86 7.72,-6.68 9.34,-11.48 1.61,-4.79 2.74,-10.96 3.38,-18.52l3.18 0c0,9.03 0.05,16.34 0.14,21.91 0.09,5.58 0.23,10.25 0.41,14.03l-3.17 0c-0.37,-3.96 -1,-6.45 -1.87,-7.46 -0.88,-1.02 -2.33,-0.88 -4.36,0.41 -3.41,2.4 -7.02,4.5 -10.85,6.29 -3.82,1.8 -8.73,2.7 -14.72,2.7 -10.42,0 -19.54,-1.98 -27.37,-5.95 -7.84,-3.96 -13.92,-9.67 -18.25,-17.14 -4.33,-7.46 -6.5,-16.45 -6.5,-26.96 0,-10.32 2.24,-19.35 6.71,-27.09 4.47,-7.74 10.62,-13.78 18.45,-18.11 7.84,-4.33 16.87,-6.5 27.1,-6.5z"></path>
  <path id="_6" class="fil2" d="M332.86 367.31l0 -2.76c2.86,-0.19 4.98,-0.55 6.36,-1.11 1.39,-0.55 2.31,-1.66 2.77,-3.31 0.46,-1.66 0.69,-4.15 0.69,-7.47l0 -68.57c0,-3.41 -0.23,-5.92 -0.69,-7.53 -0.46,-1.62 -1.41,-2.72 -2.84,-3.32 -1.42,-0.6 -3.52,-0.95 -6.29,-1.04l0 -2.76c2.86,0.09 6.52,0.18 10.99,0.27 4.47,0.1 8.97,0.14 13.48,0.14 4.7,0 9.13,-0.04 13.28,-0.14 4.14,-0.09 7.46,-0.18 9.95,-0.27l0 2.76c-2.86,0.09 -4.98,0.44 -6.36,1.04 -1.38,0.6 -2.31,1.7 -2.77,3.32 -0.46,1.61 -0.69,4.12 -0.69,7.53l0 68.57c0,3.32 0.23,5.81 0.69,7.47 0.46,1.65 1.41,2.76 2.84,3.31 1.43,0.56 3.52,0.92 6.29,1.11l0 2.76c-2.49,-0.18 -5.81,-0.3 -9.95,-0.34 -4.15,-0.05 -8.58,-0.07 -13.28,-0.07 -4.51,0 -9.01,0.02 -13.48,0.07 -4.47,0.04 -8.13,0.16 -10.99,0.34zm-59.16 0l0 -2.76c2.85,-0.19 4.97,-0.55 6.35,-1.11 1.39,-0.55 2.31,-1.66 2.77,-3.31 0.46,-1.66 0.69,-4.15 0.69,-7.47l0 -68.57c0,-3.41 -0.23,-5.92 -0.69,-7.53 -0.46,-1.62 -1.41,-2.72 -2.83,-3.32 -1.43,-0.6 -3.53,-0.95 -6.29,-1.04l0 -2.76c2.76,0.09 6.29,0.18 10.57,0.27 4.29,0.1 8.96,0.14 14.03,0.14 4.33,0 8.6,-0.04 12.79,-0.14 4.19,-0.09 7.63,-0.18 10.3,-0.27l0 2.76c-2.86,0.09 -4.98,0.44 -6.36,1.04 -1.38,0.6 -2.3,1.7 -2.76,3.32 -0.47,1.61 -0.7,4.12 -0.7,7.53l0 68.57c0,3.32 0.23,5.81 0.7,7.47 0.46,1.65 1.4,2.76 2.83,3.31 1.43,0.56 3.52,0.92 6.29,1.11l0 2.76c-2.67,-0.18 -6.11,-0.3 -10.3,-0.34 -4.19,-0.05 -8.46,-0.07 -12.79,-0.07 -5.07,0 -9.74,0.02 -14.03,0.07 -4.28,0.04 -7.81,0.16 -10.57,0.34zm26.12 -47.83l0 -2.76 54.61 0 0 2.76 -54.61 0z"></path>
  <path id="_7" class="fil2" d="M440.56 267.5c10.32,0 19.42,1.98 27.3,5.95 7.88,3.96 13.99,9.65 18.32,17.07 4.33,7.42 6.49,16.43 6.49,27.03 0,10.32 -2.23,19.35 -6.7,27.09 -4.47,7.74 -10.65,13.78 -18.53,18.11 -7.88,4.33 -16.93,6.5 -27.16,6.5 -10.32,0 -19.4,-1.98 -27.23,-5.95 -7.84,-3.96 -13.92,-9.67 -18.25,-17.14 -4.33,-7.46 -6.5,-16.45 -6.5,-26.96 0,-10.32 2.26,-19.35 6.77,-27.09 4.52,-7.74 10.67,-13.78 18.46,-18.11 7.79,-4.33 16.8,-6.5 27.03,-6.5zm-0.69 2.49c-4.52,0 -8.48,2.07 -11.89,6.22 -3.41,4.15 -6.04,9.86 -7.88,17.14 -1.85,7.28 -2.77,15.72 -2.77,25.3 0,9.77 1.04,18.27 3.11,25.51 2.08,7.23 4.91,12.81 8.5,16.72 3.6,3.92 7.56,5.88 11.89,5.88 4.61,0 8.64,-2.07 12.1,-6.22 3.46,-4.15 6.1,-9.88 7.95,-17.21 1.84,-7.33 2.76,-15.74 2.76,-25.23 0,-9.86 -1.08,-18.39 -3.25,-25.58 -2.16,-7.18 -5.02,-12.74 -8.57,-16.65 -3.55,-3.92 -7.53,-5.88 -11.95,-5.88z"></path>
 </g></svg></g></g></svg></g><g id="dark-icon"><svg xmlns="http://www.w3.org/2000/svg" version="1.1" xmlns:xlink="http://www.w3.org/1999/xlink" width="1000" height="1000"><g><g transform="matrix(1.953125,0,0,1.953125,0,0)"><svg xmlns="http://www.w3.org/2000/svg" version="1.1" xmlns:xlink="http://www.w3.org/1999/xlink" xml:space="preserve" width="512px" height="512px" style="shape-rendering:geometricPrecision; text-rendering:geometricPrecision; image-rendering:optimizeQuality; fill-rule:evenodd; clip-rule:evenodd" viewBox="0 0 512 512" xmlns:xodm="http://www.corel.com/coreldraw/odm/2003"><defs>
  <style type="text/css">
   
    .fil0 {fill:#6B3A1F}
    .fil2 {fill:#F5EFE0;fill-rule:nonzero}
    .fil1 {fill:white;fill-rule:nonzero}
   
  </style>
 </defs><g id="Camada_x0020_1">
  <metadata id="CorelCorpID_0Corel-Layer"></metadata>
  <rect class="fil0" width="512" height="512"></rect>
  <path class="fil1" d="M73.8 142.75c6.45,0 11.75,0.88 15.89,2.63 4.15,1.75 7.79,3.87 10.92,6.36 1.02,0.83 1.94,1.24 2.77,1.24 1.75,0 2.9,-2.76 3.45,-8.29l3.19 0c-0.19,3.68 -0.33,8.18 -0.42,13.47 -0.09,5.3 -0.14,12.33 -0.14,21.09l-3.18 0c-0.64,-6.64 -1.77,-12.19 -3.38,-16.66 -1.62,-4.47 -4.73,-8.27 -9.34,-11.41 -1.93,-1.29 -4.19,-2.3 -6.77,-3.04 -2.58,-0.74 -5.07,-1.1 -7.47,-1.1 -5.34,0 -9.76,1.45 -13.27,4.35 -3.5,2.9 -6.29,6.68 -8.36,11.34 -2.07,4.65 -3.55,9.72 -4.42,15.2 -0.88,5.49 -1.32,10.81 -1.32,15.97 0,16.59 2.03,28.71 6.08,36.36 4.06,7.65 9.45,11.47 16.18,11.47 1.47,0 2.77,-0.13 3.87,-0.41 1.11,-0.28 2.07,-0.69 2.9,-1.25 1.02,-0.73 1.75,-1.65 2.22,-2.76 0.46,-1.11 0.69,-2.49 0.69,-4.15l0 -13.82c0,-4.52 -0.35,-7.88 -1.04,-10.09 -0.69,-2.22 -2.05,-3.74 -4.08,-4.57 -2.03,-0.83 -4.97,-1.29 -8.85,-1.38l0 -2.76c2.12,0.09 4.7,0.16 7.75,0.2 3.04,0.05 6.22,0.1 9.53,0.14 3.32,0.05 6.36,0.07 9.13,0.07 4.42,0 8.5,-0.05 12.23,-0.14 3.74,-0.09 6.75,-0.18 9.06,-0.27l0 2.76c-1.57,0.09 -2.77,0.42 -3.6,0.97 -0.83,0.55 -1.38,1.66 -1.66,3.32 -0.27,1.66 -0.41,4.19 -0.41,7.6l0 27.37 -2.77 0c-0.09,-1.56 -0.46,-3.27 -1.1,-5.11 -0.65,-1.85 -1.71,-2.77 -3.18,-2.77 -0.74,0 -1.77,0.19 -3.11,0.56 -1.34,0.36 -3.43,1.24 -6.29,2.62 -3.59,1.75 -7.4,3.3 -11.41,4.63 -4.01,1.34 -7.99,2.01 -11.95,2.01 -11.52,0 -21.16,-1.98 -28.9,-5.95 -7.74,-3.96 -13.52,-9.67 -17.35,-17.14 -3.82,-7.46 -5.73,-16.45 -5.73,-26.96 0,-10.32 2.28,-19.35 6.84,-27.09 4.56,-7.74 10.87,-13.78 18.94,-18.11 8.06,-4.33 17.35,-6.5 27.86,-6.5z"></path>
  <path id="_1" class="fil1" d="M200.84 144.69c-0.37,4.6 -0.62,9.05 -0.76,13.34 -0.14,4.28 -0.21,7.58 -0.21,9.88 0,1.84 0.05,3.66 0.14,5.46 0.09,1.8 0.19,3.3 0.28,4.49l-3.18 0c-1.11,-7.64 -2.95,-13.66 -5.53,-18.04 -2.58,-4.37 -5.6,-7.46 -9.06,-9.26 -3.45,-1.8 -7.07,-2.69 -10.85,-2.69l-1.8 0c-2.39,0 -4.19,0.2 -5.39,0.62 -1.19,0.41 -2,1.24 -2.42,2.49 -0.41,1.24 -0.62,3.11 -0.62,5.59l0 74.1c0,2.49 0.21,4.36 0.62,5.6 0.42,1.25 1.23,2.08 2.42,2.49 1.2,0.42 3,0.62 5.39,0.62l4.57 0c3.04,0 6.24,-0.99 9.6,-2.97 3.37,-1.98 6.48,-5.37 9.34,-10.16 2.85,-4.79 5.02,-11.34 6.49,-19.63l3.18 0c-0.27,3.32 -0.41,7.56 -0.41,12.72 0,2.3 0.04,5.6 0.14,9.88 0.09,4.29 0.37,8.73 0.83,13.34 -4.7,-0.18 -10,-0.3 -15.9,-0.34 -5.9,-0.05 -11.15,-0.07 -15.76,-0.07 -2.49,0 -5.67,0 -9.54,0 -3.87,0 -8.02,0.02 -12.44,0.07 -4.43,0.04 -8.92,0.09 -13.48,0.13 -4.56,0.05 -8.87,0.12 -12.93,0.21l0 -2.76c2.86,-0.19 4.98,-0.56 6.36,-1.11 1.38,-0.55 2.31,-1.66 2.77,-3.32 0.46,-1.66 0.69,-4.14 0.69,-7.46l0 -68.57c0,-3.41 -0.23,-5.92 -0.69,-7.53 -0.46,-1.62 -1.41,-2.72 -2.84,-3.32 -1.43,-0.6 -3.52,-0.95 -6.29,-1.04l0 -2.76c4.15,0.09 8.48,0.16 13,0.2 4.51,0.05 8.98,0.1 13.41,0.14 4.42,0.05 8.57,0.07 12.44,0.07 3.87,0 7.05,0 9.54,0 4.24,0 9.05,-0.02 14.45,-0.07 5.39,-0.04 10.2,-0.16 14.44,-0.34zm-20.04 47.28c0,0 0,0.46 0,1.38 0,0.92 0,1.38 0,1.38l-23.51 0c0,0 0,-0.46 0,-1.38 0,-0.92 0,-1.38 0,-1.38l23.51 0zm4.01 -18.25c-0.37,5.25 -0.54,9.26 -0.49,12.02 0.05,2.77 0.07,5.3 0.07,7.61 0,2.3 0.05,4.84 0.14,7.6 0.09,2.77 0.32,6.77 0.69,12.03l-3.18 0c-0.55,-3.41 -1.68,-6.5 -3.39,-9.26 -1.7,-2.77 -3.89,-4.96 -6.56,-6.57 -2.68,-1.61 -5.76,-2.42 -9.27,-2.42l0 -2.76c2.58,0 4.93,-0.56 7.05,-1.66 2.12,-1.11 3.99,-2.58 5.6,-4.43 1.62,-1.84 2.95,-3.82 4.01,-5.94 1.06,-2.12 1.78,-4.19 2.15,-6.22l3.18 0z"></path>
  <path id="_2" class="fil1" d="M266.78 142.75c10.33,0 19.43,1.98 27.31,5.95 7.88,3.96 13.98,9.65 18.31,17.07 4.34,7.42 6.5,16.43 6.5,27.02 0,10.33 -2.23,19.36 -6.7,27.1 -4.47,7.74 -10.65,13.78 -18.53,18.11 -7.88,4.33 -16.93,6.5 -27.16,6.5 -10.32,0 -19.4,-1.98 -27.24,-5.95 -7.83,-3.96 -13.91,-9.67 -18.24,-17.14 -4.34,-7.46 -6.5,-16.45 -6.5,-26.96 0,-10.32 2.25,-19.35 6.77,-27.09 4.52,-7.74 10.67,-13.78 18.46,-18.11 7.78,-4.33 16.79,-6.5 27.02,-6.5zm-0.69 2.49c-4.51,0 -8.48,2.07 -11.89,6.22 -3.41,4.15 -6.03,9.86 -7.88,17.14 -1.84,7.28 -2.76,15.72 -2.76,25.3 0,9.77 1.04,18.27 3.11,25.51 2.07,7.23 4.91,12.81 8.5,16.72 3.59,3.92 7.56,5.88 11.89,5.88 4.61,0 8.64,-2.07 12.1,-6.22 3.45,-4.15 6.1,-9.89 7.95,-17.21 1.84,-7.33 2.76,-15.74 2.76,-25.23 0,-9.86 -1.08,-18.39 -3.25,-25.58 -2.16,-7.19 -5.02,-12.74 -8.57,-16.66 -3.55,-3.91 -7.53,-5.87 -11.96,-5.87z"></path>
  <path id="_3" class="fil2" d="M113.06 269.44l0 2.76c-2.77,0.56 -4.87,1.52 -6.29,2.9 -1.43,1.39 -2.38,3.53 -2.84,6.43 -0.46,2.91 -0.69,6.98 -0.69,12.24l0 73.54c-1.38,-0.18 -2.88,-0.27 -4.49,-0.27 -1.61,0 -3.34,0.09 -5.19,0.27l-61.24 -66.91 0 39.82c0,6.17 0.25,10.9 0.76,14.17 0.51,3.27 1.75,5.62 3.74,7.05 1.98,1.43 5.13,2.46 9.46,3.11l0 2.76c-1.84,-0.18 -4.23,-0.3 -7.18,-0.34 -2.95,-0.05 -5.72,-0.07 -8.3,-0.07 -2.03,0 -4.1,0.02 -6.22,0.07 -2.12,0.04 -3.87,0.16 -5.25,0.34l0 -2.76c2.85,-0.65 4.97,-1.64 6.36,-2.97 1.38,-1.34 2.3,-3.48 2.76,-6.43 0.46,-2.95 0.69,-7.01 0.69,-12.17l0 -58.89c0,-3.41 -0.23,-5.92 -0.69,-7.53 -0.46,-1.62 -1.41,-2.72 -2.83,-3.32 -1.43,-0.6 -3.53,-0.95 -6.29,-1.04l0 -2.76c1.38,0.09 3.13,0.18 5.25,0.27 2.12,0.1 4.19,0.14 6.22,0.14 2.31,0 4.56,-0.04 6.77,-0.14 2.22,-0.09 4.2,-0.18 5.95,-0.27l56.54 59.72 0 -32.63c0,-6.17 -0.25,-10.9 -0.76,-14.17 -0.51,-3.27 -1.73,-5.64 -3.66,-7.12 -1.94,-1.47 -5.12,-2.48 -9.54,-3.04l0 -2.76c1.84,0.09 4.24,0.18 7.19,0.27 2.95,0.1 5.71,0.14 8.29,0.14 2.12,0 4.22,-0.04 6.29,-0.14 2.08,-0.09 3.8,-0.18 5.19,-0.27z"></path>
  <path id="_4" class="fil2" d="M167.94 269.44l0 2.76c-2.86,0.09 -4.98,0.44 -6.36,1.04 -1.38,0.6 -2.3,1.7 -2.76,3.32 -0.47,1.61 -0.7,4.12 -0.7,7.53l0 68.57c0,3.32 0.23,5.81 0.7,7.47 0.46,1.65 1.4,2.76 2.83,3.31 1.43,0.56 3.52,0.92 6.29,1.11l0 2.76c-2.67,-0.18 -6.11,-0.3 -10.3,-0.34 -4.19,-0.05 -8.46,-0.07 -12.79,-0.07 -5.07,0 -9.74,0.02 -14.03,0.07 -4.28,0.04 -7.81,0.16 -10.58,0.34l0 -2.76c2.86,-0.19 4.98,-0.55 6.36,-1.11 1.39,-0.55 2.31,-1.66 2.77,-3.31 0.46,-1.66 0.69,-4.15 0.69,-7.47l0 -68.57c0,-3.41 -0.23,-5.92 -0.69,-7.53 -0.46,-1.62 -1.41,-2.72 -2.83,-3.32 -1.43,-0.6 -3.53,-0.95 -6.3,-1.04l0 -2.76c2.77,0.09 6.3,0.18 10.58,0.27 4.29,0.1 8.96,0.14 14.03,0.14 4.33,0 8.6,-0.04 12.79,-0.14 4.19,-0.09 7.63,-0.18 10.3,-0.27z"></path>
  <path id="_5" class="fil2" d="M227.94 267.5c6.08,0 11.08,0.9 15,2.7 3.91,1.79 7.39,3.89 10.43,6.29 1.85,1.38 3.25,1.54 4.22,0.48 0.97,-1.06 1.64,-3.57 2.01,-7.53l3.17 0c-0.18,3.68 -0.32,8.18 -0.41,13.48 -0.09,5.29 -0.14,12.32 -0.14,21.08l-3.18 0c-0.37,-4.43 -0.97,-8.37 -1.8,-11.82 -0.82,-3.46 -2.07,-6.52 -3.73,-9.2 -1.66,-2.67 -4.05,-5.02 -7.19,-7.05 -1.93,-1.29 -3.98,-2.3 -6.15,-3.04 -2.16,-0.73 -4.4,-1.1 -6.7,-1.1 -5.26,0 -9.59,1.45 -13,4.35 -3.41,2.9 -6.06,6.68 -7.95,11.34 -1.89,4.65 -3.2,9.72 -3.94,15.2 -0.73,5.49 -1.1,10.81 -1.1,15.97 0,5.16 0.37,10.49 1.1,15.97 0.74,5.48 2.05,10.55 3.94,15.21 1.89,4.65 4.54,8.43 7.95,11.33 3.41,2.9 7.74,4.36 13,4.36 2.3,0 4.54,-0.4 6.7,-1.18 2.17,-0.78 4.22,-1.77 6.15,-2.97 4.61,-2.86 7.72,-6.68 9.34,-11.48 1.61,-4.79 2.74,-10.96 3.38,-18.52l3.18 0c0,9.03 0.05,16.34 0.14,21.91 0.09,5.58 0.23,10.25 0.41,14.03l-3.17 0c-0.37,-3.96 -1,-6.45 -1.87,-7.46 -0.88,-1.02 -2.33,-0.88 -4.36,0.41 -3.41,2.4 -7.02,4.5 -10.85,6.29 -3.82,1.8 -8.73,2.7 -14.72,2.7 -10.42,0 -19.54,-1.98 -27.37,-5.95 -7.84,-3.96 -13.92,-9.67 -18.25,-17.14 -4.33,-7.46 -6.5,-16.45 -6.5,-26.96 0,-10.32 2.24,-19.35 6.71,-27.09 4.47,-7.74 10.62,-13.78 18.45,-18.11 7.84,-4.33 16.87,-6.5 27.1,-6.5z"></path>
  <path id="_6" class="fil2" d="M332.86 367.31l0 -2.76c2.86,-0.19 4.98,-0.55 6.36,-1.11 1.39,-0.55 2.31,-1.66 2.77,-3.31 0.46,-1.66 0.69,-4.15 0.69,-7.47l0 -68.57c0,-3.41 -0.23,-5.92 -0.69,-7.53 -0.46,-1.62 -1.41,-2.72 -2.84,-3.32 -1.42,-0.6 -3.52,-0.95 -6.29,-1.04l0 -2.76c2.86,0.09 6.52,0.18 10.99,0.27 4.47,0.1 8.97,0.14 13.48,0.14 4.7,0 9.13,-0.04 13.28,-0.14 4.14,-0.09 7.46,-0.18 9.95,-0.27l0 2.76c-2.86,0.09 -4.98,0.44 -6.36,1.04 -1.38,0.6 -2.31,1.7 -2.77,3.32 -0.46,1.61 -0.69,4.12 -0.69,7.53l0 68.57c0,3.32 0.23,5.81 0.69,7.47 0.46,1.65 1.41,2.76 2.84,3.31 1.43,0.56 3.52,0.92 6.29,1.11l0 2.76c-2.49,-0.18 -5.81,-0.3 -9.95,-0.34 -4.15,-0.05 -8.58,-0.07 -13.28,-0.07 -4.51,0 -9.01,0.02 -13.48,0.07 -4.47,0.04 -8.13,0.16 -10.99,0.34zm-59.16 0l0 -2.76c2.85,-0.19 4.97,-0.55 6.35,-1.11 1.39,-0.55 2.31,-1.66 2.77,-3.31 0.46,-1.66 0.69,-4.15 0.69,-7.47l0 -68.57c0,-3.41 -0.23,-5.92 -0.69,-7.53 -0.46,-1.62 -1.41,-2.72 -2.83,-3.32 -1.43,-0.6 -3.53,-0.95 -6.29,-1.04l0 -2.76c2.76,0.09 6.29,0.18 10.57,0.27 4.29,0.1 8.96,0.14 14.03,0.14 4.33,0 8.6,-0.04 12.79,-0.14 4.19,-0.09 7.63,-0.18 10.3,-0.27l0 2.76c-2.86,0.09 -4.98,0.44 -6.36,1.04 -1.38,0.6 -2.3,1.7 -2.76,3.32 -0.47,1.61 -0.7,4.12 -0.7,7.53l0 68.57c0,3.32 0.23,5.81 0.7,7.47 0.46,1.65 1.4,2.76 2.83,3.31 1.43,0.56 3.52,0.92 6.29,1.11l0 2.76c-2.67,-0.18 -6.11,-0.3 -10.3,-0.34 -4.19,-0.05 -8.46,-0.07 -12.79,-0.07 -5.07,0 -9.74,0.02 -14.03,0.07 -4.28,0.04 -7.81,0.16 -10.57,0.34zm26.12 -47.83l0 -2.76 54.61 0 0 2.76 -54.61 0z"></path>
  <path id="_7" class="fil2" d="M440.56 267.5c10.32,0 19.42,1.98 27.3,5.95 7.88,3.96 13.99,9.65 18.32,17.07 4.33,7.42 6.49,16.43 6.49,27.03 0,10.32 -2.23,19.35 -6.7,27.09 -4.47,7.74 -10.65,13.78 -18.53,18.11 -7.88,4.33 -16.93,6.5 -27.16,6.5 -10.32,0 -19.4,-1.98 -27.23,-5.95 -7.84,-3.96 -13.92,-9.67 -18.25,-17.14 -4.33,-7.46 -6.5,-16.45 -6.5,-26.96 0,-10.32 2.26,-19.35 6.77,-27.09 4.52,-7.74 10.67,-13.78 18.46,-18.11 7.79,-4.33 16.8,-6.5 27.03,-6.5zm-0.69 2.49c-4.52,0 -8.48,2.07 -11.89,6.22 -3.41,4.15 -6.04,9.86 -7.88,17.14 -1.85,7.28 -2.77,15.72 -2.77,25.3 0,9.77 1.04,18.27 3.11,25.51 2.08,7.23 4.91,12.81 8.5,16.72 3.6,3.92 7.56,5.88 11.89,5.88 4.61,0 8.64,-2.07 12.1,-6.22 3.46,-4.15 6.1,-9.88 7.95,-17.21 1.84,-7.33 2.76,-15.74 2.76,-25.23 0,-9.86 -1.08,-18.39 -3.25,-25.58 -2.16,-7.18 -5.02,-12.74 -8.57,-16.65 -3.55,-3.92 -7.53,-5.88 -11.95,-5.88z"></path>
 </g></svg></g></g></svg></g></svg>